<svg width="18" height="17" viewBox="0 0 18 17" fill="none" xmlns="http://www.w3.org/2000/svg">
<path d="M1.41084 15.9091C0.850098 15.358 0.869434 14.3815 1.3915 13.8595L6.92158 8.32938L1.3915 2.81864C0.869434 2.2869 0.850098 1.3201 1.41084 0.759362C1.97158 0.188952 2.94805 0.208288 3.47012 0.740026L8.99053 6.26044L14.5109 0.740026C15.0523 0.19862 15.9998 0.19862 16.5605 0.759362C17.131 1.3201 17.131 2.26757 16.5799 2.81864L11.0691 8.32938L16.5799 13.8498C17.131 14.4009 17.1213 15.3387 16.5605 15.9091C16.0095 16.4698 15.0523 16.4698 14.5109 15.9284L8.99053 10.408L3.47012 15.9284C2.94805 16.4601 1.98125 16.4698 1.41084 15.9091Z" fill="#4B678B"/>
</svg>
