<svg width="21" height="20" viewBox="0 0 21 20" fill="none" xmlns="http://www.w3.org/2000/svg">
<g id="Cup">
<g id="Vector">
<path d="M18.8336 6.80215L18.8336 6.86259C18.8336 7.57988 18.8336 7.93852 18.6609 8.23195C18.4883 8.52538 18.1748 8.69955 17.5477 9.0479L16.8866 9.41519C17.3422 7.87507 17.4942 6.22032 17.5504 4.80518C17.5528 4.7445 17.5555 4.68308 17.5582 4.62101L17.5602 4.57753C18.1029 4.766 18.4076 4.90652 18.5977 5.17027C18.8336 5.49764 18.8336 5.93248 18.8336 6.80215Z" fill="url(#paint0_linear_2126_1022)"/>
<path d="M2.16699 6.80215L2.16699 6.86259C2.16701 7.57988 2.16702 7.93852 2.33968 8.23195C2.51234 8.52538 2.82585 8.69955 3.45286 9.0479L4.11433 9.41539C3.65872 7.87521 3.50672 6.22038 3.45053 4.80518C3.44813 4.7445 3.44541 4.68308 3.44267 4.62101L3.44075 4.57742C2.89783 4.76595 2.59304 4.90647 2.40291 5.17027C2.16696 5.49764 2.16697 5.93248 2.16699 6.80215Z" fill="url(#paint1_linear_2126_1022)"/>
<path fill-rule="evenodd" clip-rule="evenodd" d="M10.5005 1.66687C11.9867 1.66687 13.2112 1.79778 14.1479 1.95582C15.0969 2.11593 15.5713 2.19598 15.9678 2.68423C16.3642 3.17248 16.3433 3.70018 16.3014 4.75559C16.1575 8.37892 15.3756 12.9046 11.1253 13.3049V16.2502H12.3172C12.7144 16.2502 13.0564 16.5306 13.1343 16.9201L13.292 17.7085H15.5003C15.8455 17.7085 16.1253 17.9884 16.1253 18.3335C16.1253 18.6787 15.8455 18.9585 15.5003 18.9585H5.50032C5.15515 18.9585 4.87532 18.6787 4.87532 18.3335C4.87532 17.9884 5.15515 17.7085 5.50032 17.7085H7.70866L7.86634 16.9201C7.94425 16.5306 8.28626 16.2502 8.68349 16.2502H9.87532V13.3049C5.62529 12.9044 4.8434 8.37885 4.69955 4.75559C4.65765 3.70018 4.6367 3.17248 5.03313 2.68423C5.42956 2.19598 5.90403 2.11593 6.85297 1.95582C7.78969 1.79778 9.01417 1.66687 10.5005 1.66687ZM11.294 5.16593L11.212 5.01896C10.8954 4.4509 10.737 4.16687 10.5003 4.16687C10.2636 4.16687 10.1053 4.4509 9.78862 5.01896L9.70669 5.16593C9.61671 5.32735 9.57171 5.40807 9.50156 5.46132C9.43141 5.51458 9.34404 5.53434 9.1693 5.57388L9.01021 5.60988C8.39529 5.74901 8.08783 5.81857 8.01468 6.0538C7.94153 6.28903 8.15114 6.53414 8.57035 7.02435L8.6788 7.15118C8.79793 7.29048 8.85749 7.36013 8.88429 7.4463C8.91109 7.53247 8.90208 7.6254 8.88407 7.81126L8.86767 7.98047C8.80429 8.63452 8.7726 8.96154 8.96411 9.10692C9.15562 9.2523 9.44349 9.11976 10.0192 8.85466L10.1682 8.78608C10.3318 8.71075 10.4136 8.67308 10.5003 8.67308C10.587 8.67308 10.6688 8.71075 10.8325 8.78608L10.9814 8.85466C11.5572 9.11975 11.845 9.2523 12.0365 9.10692C12.228 8.96154 12.1964 8.63452 12.133 7.98047L12.1166 7.81126C12.0986 7.6254 12.0896 7.53247 12.1164 7.4463C12.1432 7.36013 12.2027 7.29048 12.3218 7.15117L12.4303 7.02435C12.8495 6.53414 13.0591 6.28903 12.986 6.0538C12.9128 5.81857 12.6054 5.74901 11.9904 5.60988L11.8314 5.57388C11.6566 5.53434 11.5692 5.51458 11.4991 5.46132C11.4289 5.40807 11.3839 5.32735 11.294 5.16593Z" fill="url(#paint2_linear_2126_1022)"/>
</g>
</g>
<defs>
<linearGradient id="paint0_linear_2126_1022" x1="2.16699" y1="6.2502" x2="13.2809" y2="15.2987" gradientUnits="userSpaceOnUse">
<stop stop-color="#E9AD3A"/>
<stop offset="0.475" stop-color="#FFDCB7"/>
<stop offset="1" stop-color="#FFD85E"/>
</linearGradient>
<linearGradient id="paint1_linear_2126_1022" x1="2.16699" y1="6.2502" x2="13.2809" y2="15.2987" gradientUnits="userSpaceOnUse">
<stop stop-color="#E9AD3A"/>
<stop offset="0.475" stop-color="#FFDCB7"/>
<stop offset="1" stop-color="#FFD85E"/>
</linearGradient>
<linearGradient id="paint2_linear_2126_1022" x1="2.16699" y1="6.2502" x2="13.2809" y2="15.2987" gradientUnits="userSpaceOnUse">
<stop stop-color="#E9AD3A"/>
<stop offset="0.475" stop-color="#FFDCB7"/>
<stop offset="1" stop-color="#FFD85E"/>
</linearGradient>
</defs>
</svg>
