<svg width="18" height="19" viewBox="0 0 18 19" fill="none" xmlns="http://www.w3.org/2000/svg">
<g id="icon">
<g id="Group">
<path id="Vector" d="M13.7812 5.28113C12.5951 5.28113 11.5235 5.7705 10.7571 6.55835L9.73547 7.60847L10.8401 8.74367L11.892 7.66226C12.3711 7.16972 13.0412 6.86316 13.7812 6.86316C15.235 6.86316 16.418 8.04617 16.418 9.50023C16.418 10.9539 15.235 12.1369 13.7812 12.1369C13.0412 12.1369 12.3711 11.8304 11.892 11.3375C10.3423 9.74446 8.79257 8.15141 7.24289 6.55835C6.47648 5.7705 5.40492 5.28113 4.21875 5.28113C1.88895 5.28113 0 7.17007 0 9.50023C0 11.83 1.88895 13.719 4.21875 13.719C5.40492 13.719 6.47648 13.2296 7.24289 12.4418L8.26453 11.3916L7.15992 10.2564L6.10805 11.3375C5.62887 11.8304 4.95879 12.1369 4.21875 12.1369C2.76504 12.1369 1.58203 10.9539 1.58203 9.50023C1.58203 8.04617 2.76504 6.86316 4.21875 6.86316C4.95879 6.86316 5.62887 7.16972 6.10805 7.66226L10.7571 12.4418C11.5235 13.2296 12.5951 13.719 13.7812 13.719C16.1111 13.719 18 11.83 18 9.50023C18 7.17007 16.1111 5.28113 13.7812 5.28113Z" fill="white" fill-opacity="0.4"/>
</g>
</g>
</svg>
